<?xml version="1.0" encoding="utf-8"?>
<!-- Generator: Adobe Illustrator 21.1.0, SVG Export Plug-In . SVG Version: 6.00 Build 0)  -->
<svg version="1.1" id="Layer_1" xmlns="http://www.w3.org/2000/svg" xmlns:xlink="http://www.w3.org/1999/xlink" x="0px" y="0px"
	 viewBox="0 0 2786 2212" style="enable-background:new 0 0 2786 2212;" xml:space="preserve">
<style type="text/css">
	.st0{fill:#FFFFFF;}
</style>
<g>
	<g>
		<g>
			<path class="st0" d="M2458.5,1574.2c-58.4,16.3-119,24.5-181.7,24.5c-51.5,0-103.5-5.4-155.9-16.1
				c-52.4-10.7-103.9-24.5-154.6-41.2c-50.7-16.8-100.8-35.9-150.1-57.4c-49.4-21.5-96.4-43-141.1-64.4c-9.5-4.3-20.8-9.9-34.2-16.8
				c-13.3-6.9-24.7-12.9-34.1-18c-17.2-10.3-35.7-20.2-55.4-29.6c-19.8-9.4-38.2-17.6-55.4-24.5h-6.4c-9.5,0-20.4,1.9-32.9,5.8
				c-12.5,3.9-26,8-40.6,12.2c-17.2,5.1-34.8,9.9-52.8,14.2c-18,4.3-37,6.5-56.7,6.5c-75.6,0-144.3-12.2-206.2-36.7
				c-61.9-24.5-114.7-58.8-158.5-103.1c-43.8-44.2-77.8-97.3-101.8-159.1C816,1008.5,804,940.6,804,866.7
				c0-71.3,13.3-137.4,39.9-198.4c26.6-61,62.9-114,108.9-159.1c45.9-45.1,99.9-80.3,161.7-105.7c61.8-25.3,128.4-38,199.7-38
				c68.7,0,133.6,11.4,194.6,34.1c61,22.8,114,55,159.1,96.6c45.1,41.7,80.7,91.5,107,149.5c26.2,58,39.3,122.2,39.3,192.6
				c0,82.5-18,161.1-54.1,235.8c-36.1,74.7-87.6,137.4-154.6,188.1c55.8,33.5,113.6,66.6,173.3,99.2
				c59.7,32.6,120.9,61.9,183.6,87.6c62.7,25.8,126.1,46.6,190.1,62.5c64,15.9,128.6,23.8,193.9,23.8c46.4,0,91.7-4.7,135.9-14.2
				c44.2-9.5,87.4-22.8,129.5-39.9l14.2,20.6C2572.7,1533.8,2516.9,1557.8,2458.5,1574.2z M1642.2,688.9
				c-15.9-49.8-39.3-93.6-70.2-131.4c-30.9-37.8-68.7-68.1-113.4-90.8c-44.7-22.8-95.8-34.1-153.3-34.1
				c-54.1,0-103.5,8.6-148.2,25.8c-44.7,17.2-83.1,41.7-115.3,73.4c-32.2,31.8-57.1,70-74.7,114.7c-17.6,44.7-26.4,94.5-26.4,149.5
				c0,62.7,10.5,122.9,31.6,180.4c21,57.6,50.5,109.1,88.3,154.6c37.8,45.5,82.9,83.3,135.3,113.4c52.4,30.1,110,49,172.7,56.7
				c47.2-17.2,89.3-41.2,126.3-72.2c36.9-30.9,68.1-66.4,93.4-106.3c25.3-40,44.7-83.3,58-130.2c13.3-46.8,20-95.6,20-146.3
				C1666,791.2,1658.1,738.7,1642.2,688.9z"/>
		</g>
	</g>
	<g>
		<g>
			<path class="st0" d="M766.8,2035.3l81.5,81h-54.6l-64.3-64.3c-15.3,4.2-31.5,6.5-48.1,6.5c-90.7,0-162-68-162-164.8
				c0-96.7,71.3-164.8,162-164.8c91.2,0,162,68,162,164.8C843.2,1956.7,813.1,2007.6,766.8,2035.3z M681.2,2021.9
				c68,0,119-49.5,119-128.2c0-79.1-50.9-128.2-119-128.2s-119,49.1-119,128.2C562.2,1972.4,613.1,2021.9,681.2,2021.9z"/>
			<path class="st0" d="M1124.6,2055.2h-42.1v-37.5c-16.2,26.4-47.2,41.2-81,41.2c-58.3,0-104.1-36.1-104.1-108.8v-148.6H939v143
				c0,51.4,28.2,77.8,70.8,77.8c43.5,0,72.7-26.8,72.7-81.5v-139.3h42.1V2055.2z"/>
			<path class="st0" d="M1300.9,1797.4c39.8,0,76.4,20.4,94,49.5v-134.2h42.6v342.5h-42.6v-47.7c-15.3,28.2-48.1,51.8-94.4,51.8
				c-68,0-120.3-53.2-120.3-131.9C1180.1,1848.3,1232.4,1797.4,1300.9,1797.4z M1308.8,1834c-46.3,0-85.6,33.8-85.6,93.5
				s39.3,94.9,85.6,94.9s86.1-34.7,86.1-94.4C1394.9,1869.2,1355.1,1834,1308.8,1834z"/>
			<path class="st0" d="M1478.7,1801.6h43l58.3,212.9l62.9-212.9h43l61.6,213.4l57.4-213.4h41.7l-79.1,253.6H1724l-61.1-201.3
				l-61.1,201.3h-43.5L1478.7,1801.6z"/>
			<path class="st0" d="M1992.9,1797.4c47.2,0,79.6,24.1,94.4,50.5v-46.3h42.6v253.6h-42.6V2008c-15.3,27.3-48.1,51.4-94.9,51.4
				c-67.6,0-119.9-53.2-119.9-131.9C1872.5,1848.3,1924.8,1797.4,1992.9,1797.4z M2001.2,1834c-46.3,0-85.6,33.8-85.6,93.5
				s39.3,94.9,85.6,94.9s86.1-34.7,86.1-94.4C2087.3,1869.2,2047.5,1834,2001.2,1834z"/>
		</g>
	</g>
	<path class="st0" d="M1247.3,205.8c0,45.8-37.1,83-83,83c-45.8,0-83-37.2-83-83c0-45.8,37.2-83,83-83
		C1210.2,122.8,1247.3,159.9,1247.3,205.8z"/>
	<path class="st0" d="M1541.4,205.8c0,45.8-37.1,83-83,83c-45.8,0-83-37.2-83-83c0-45.8,37.1-83,83-83
		C1504.2,122.8,1541.4,159.9,1541.4,205.8z"/>
	<path class="st0" d="M148.2,1481.4c42.1,17.2,85.3,30.5,129.5,39.9c44.3,9.4,89.6,14.2,135.9,14.2c65.3,0,129.9-7.9,193.9-23.8
		c64-15.9,127.4-36.7,190.1-62.5c62.7-25.8,123.9-55,183.6-87.6c59.1-32.3,116.3-65.1,171.6-98.2l94.5,74.4
		c-12.3,5.3-25.1,10.9-38.7,17.4c-19.8,9.5-38.2,19.3-55.4,29.6c-9.4,5.2-20.8,11.2-34.2,18c-13.3,6.9-24.7,12.4-34.1,16.8
		c-44.7,21.5-91.7,42.9-141.1,64.4c-49.4,21.5-99.4,40.6-150.1,57.4c-50.7,16.8-102.2,30.5-154.6,41.2
		c-52.4,10.7-104.4,16.1-155.9,16.1c-62.7,0-123.2-8.2-181.7-24.5c-58.4-16.3-114.2-40.4-167.5-72.2L148.2,1481.4z"/>
</g>
</svg>
