<?xml version="1.0" encoding="utf-8"?>
<!-- Generator: Adobe Illustrator 21.1.0, SVG Export Plug-In . SVG Version: 6.00 Build 0)  -->
<svg version="1.1" id="Layer_1" xmlns="http://www.w3.org/2000/svg" xmlns:xlink="http://www.w3.org/1999/xlink" x="0px" y="0px"
	 viewBox="0 0 2786 2212" style="enable-background:new 0 0 2786 2212;" xml:space="preserve">
<style type="text/css">
	.st0{fill:#FFFFFF;}
	.st1{fill-rule:evenodd;clip-rule:evenodd;fill:#FFFFFF;}
	.st2{fill-rule:evenodd;clip-rule:evenodd;fill:none;stroke:#FFFFFF;stroke-width:9;stroke-miterlimit:10;}
</style>
<g>
	<path class="st0" d="M935.1,1964.1c-53.9,0-97.7-43.8-97.7-97.7v-37.2c0-53.9,43.8-97.7,97.7-97.7c53.9,0,97.7,43.8,97.7,97.7v37.2
		C1032.8,1920.3,989,1964.1,935.1,1964.1z M935.1,1774.2c-30.4,0-55.1,24.7-55.1,55.1v37.2c0,30.4,24.7,55.1,55.1,55.1
		c30.4,0,55.1-24.7,55.1-55.1v-37.2C990.2,1798.9,965.5,1774.2,935.1,1774.2z"/>
	<path class="st0" d="M1167.5,1964.1c-53.9,0-97.7-43.8-97.7-97.7v-37.2c0-53.9,43.8-97.7,97.7-97.7c53.9,0,97.7,43.8,97.7,97.7
		v37.2C1265.2,1920.3,1221.3,1964.1,1167.5,1964.1z M1167.5,1774.2c-30.4,0-55.1,24.7-55.1,55.1v37.2c0,30.4,24.7,55.1,55.1,55.1
		c30.4,0,55.1-24.7,55.1-55.1v-37.2C1222.5,1798.9,1197.8,1774.2,1167.5,1774.2z"/>
	<path class="st0" d="M1786,1964.3l-42.6-0.9l4.5-215.7c0-29.9-24.7-54.6-55.1-54.6c-30.4,0-55.1,24.7-55.1,55.1v37.2
		c0,30.4,24.7,55.1,55.1,55.1l26.8,0.2l-0.4,42.6l-26.6-0.2c-53.7,0-97.5-43.8-97.5-97.7v-37.2c0-53.9,43.8-97.7,97.7-97.7
		c53.9,0,97.7,43.8,97.7,97.7L1786,1964.3z"/>
	<path class="st0" d="M1167.5,2134.9c-53.9,0-97.7-43.8-97.7-97.7V2000h42.6v37.2c0,30.4,24.7,55.1,55.1,55.1
		c30.4,0,55.1-24.7,55.1-55.1v-184.1h42.6v184.1C1265.2,2091.1,1221.3,2134.9,1167.5,2134.9z"/>
	<path class="st0" d="M1417,1962.8c-53.9,0-97.7-43.8-97.7-97.7v-37.2h42.6v37.2c0,30.4,24.7,55.1,55.1,55.1
		c30.4,0,55.1-24.7,55.1-55.1v-184.1h42.6v184.1C1514.7,1919,1470.8,1962.8,1417,1962.8z"/>
	<path class="st0" d="M1586,1962.8c-53.9,0-97.7-43.8-97.7-97.7v-184.1h42.6v184.1c0,30.4,24.7,55.1,55.1,55.1V1962.8z"/>
	<path class="st1" d="M929,1680.9c0,13.3-10.8,24.1-24.1,24.1c-13.3,0-24.1-10.8-24.1-24.1c0-13.3,10.8-24.1,24.1-24.1
		C918.2,1656.9,929,1667.7,929,1680.9z"/>
	<path class="st1" d="M1002.5,1680.9c0,13.3-10.8,24.1-24.1,24.1c-13.3,0-24.1-10.8-24.1-24.1c0-13.3,10.8-24.1,24.1-24.1
		C991.7,1656.9,1002.5,1667.7,1002.5,1680.9z"/>
	<ellipse class="st1" cx="1651.4" cy="1594.9" rx="24.1" ry="24.1"/>
	<ellipse class="st1" cx="1724.8" cy="1594.9" rx="24.1" ry="24.1"/>
	<path class="st2" d="M1243.8,1847.8"/>
	<path class="st2" d="M1600.4,1940.4"/>
	<rect x="1760" y="1920.1" class="st0" width="25.4" height="42.6"/>
	<rect x="1571.2" y="1920.1" class="st0" width="182.1" height="42.6"/>
</g>
<g>
	<g>
		<path class="st0" d="M2460.4,1574.5c-58.4,16.3-118.9,24.5-181.5,24.5c-51.5,0-103.4-5.4-155.8-16.1
			c-52.4-10.7-103.8-24.5-154.5-41.2c-50.7-16.7-100.7-35.8-150-57.3c-49.4-21.5-96.3-42.9-141-64.4c-9.4-4.3-20.8-9.9-34.1-16.7
			c-13.3-6.9-24.7-12.9-34.1-18c-17.2-10.3-35.6-20.2-55.4-29.6c-19.7-9.4-38.2-17.6-55.4-24.5h-6.4c-9.5,0-20.4,1.9-32.8,5.8
			c-12.5,3.9-26,7.9-40.5,12.2c-17.2,5.1-34.8,9.9-52.8,14.2c-18,4.3-36.9,6.4-56.6,6.4c-75.5,0-144.2-12.2-206-36.7
			c-61.8-24.5-114.6-58.8-158.3-103c-43.8-44.2-77.7-97.2-101.7-159c-24-61.8-36-129.6-36-203.4c0-71.2,13.3-137.3,39.9-198.2
			c26.6-60.9,62.9-113.9,108.8-159c45.9-45.1,99.8-80.2,161.6-105.6c61.8-25.3,128.3-38,199.5-38c68.6,0,133.4,11.4,194.4,34.1
			c60.9,22.8,113.9,54.9,159,96.6c45.1,41.6,80.7,91.4,106.9,149.3c26.2,57.9,39.3,122.1,39.3,192.5c0,82.4-18,160.9-54.1,235.6
			c-36,74.7-87.5,137.3-154.5,188c55.8,33.5,113.5,66.5,173.2,99.1c59.6,32.6,120.8,61.8,183.4,87.5
			c62.6,25.7,125.9,46.5,189.9,62.4c63.9,15.9,128.5,23.8,193.7,23.8c46.3,0,91.6-4.7,135.8-14.2c44.2-9.5,87.3-22.7,129.4-39.9
			l14.2,20.6C2574.6,1534.2,2518.8,1558.2,2460.4,1574.5z M1644.9,690.1c-15.9-49.8-39.3-93.5-70.2-131.3
			c-30.9-37.8-68.7-68-113.3-90.7c-44.6-22.7-95.7-34.1-153.2-34.1c-54.1,0-103.4,8.6-148,25.7c-44.6,17.2-83,41.6-115.2,73.4
			c-32.2,31.8-57.1,70-74.7,114.6C952.8,692.3,944,742.1,944,797c0,62.7,10.5,122.7,31.5,180.2c21,57.5,50.4,109,88.2,154.5
			c37.7,45.5,82.8,83.2,135.2,113.3c52.3,30.1,109.8,48.9,172.5,56.7c47.2-17.2,89.2-41.2,126.2-72.1c36.9-30.9,68-66.3,93.3-106.2
			c25.3-39.9,44.6-83.2,57.9-130c13.3-46.8,20-95.5,20-146.1C1668.7,792.3,1660.8,739.9,1644.9,690.1z"/>
	</g>
</g>
<path class="st0" d="M1250.5,207.5c0,45.8-37.1,82.9-82.9,82.9c-45.8,0-82.9-37.1-82.9-82.9c0-45.8,37.1-82.9,82.9-82.9
	C1213.3,124.6,1250.5,161.7,1250.5,207.5z"/>
<path class="st0" d="M1544.2,207.5c0,45.8-37.1,82.9-82.9,82.9c-45.8,0-82.9-37.1-82.9-82.9c0-45.8,37.1-82.9,82.9-82.9
	C1507.1,124.6,1544.2,161.7,1544.2,207.5z"/>
<path class="st0" d="M152.4,1481.8c42.1,17.2,85.2,30.4,129.4,39.9c44.2,9.4,89.5,14.2,135.8,14.2c65.2,0,129.8-7.9,193.7-23.8
	c63.9-15.9,127.2-36.7,189.9-62.4c62.7-25.7,123.8-54.9,183.4-87.5c59.1-32.3,116.2-65,171.5-98.1l94.4,74.3
	c-12.3,5.3-25.1,10.9-38.6,17.4c-19.7,9.5-38.2,19.3-55.4,29.6c-9.4,5.2-20.8,11.2-34.1,18c-13.3,6.9-24.7,12.4-34.1,16.7
	c-44.6,21.4-91.6,42.9-141,64.4c-49.3,21.5-99.3,40.6-150,57.3c-50.6,16.7-102.1,30.5-154.5,41.2c-52.3,10.7-104.3,16.1-155.8,16.1
	c-62.6,0-123.1-8.2-181.5-24.5c-58.4-16.3-114.1-40.3-167.4-72.1L152.4,1481.8z"/>
</svg>
